<?xml version="1.0" encoding="UTF-8"?>
<svg width="338px" height="611px" viewBox="0 0 338 611" version="1.1" xmlns="http://www.w3.org/2000/svg" xmlns:xlink="http://www.w3.org/1999/xlink">
    <!-- Generator: Sketch 63.1 (92452) - https://sketch.com -->
    <title>Group 12</title>
    <desc>Created with Sketch.</desc>
    <defs>
        <rect id="path-1" x="32" y="51" width="1028" height="646" rx="20"></rect>
        <filter x="-8.9%" y="-13.6%" width="117.9%" height="128.5%" filterUnits="objectBoundingBox" id="filter-2">
            <feOffset dx="0" dy="2" in="SourceAlpha" result="shadowOffsetOuter1"></feOffset>
            <feGaussianBlur stdDeviation="25" in="shadowOffsetOuter1" result="shadowBlurOuter1"></feGaussianBlur>
            <feColorMatrix values="0 0 0 0 0.593891531   0 0 0 0 0.593891531   0 0 0 0 0.593891531  0 0 0 0.249289773 0" type="matrix" in="shadowBlurOuter1" result="shadowMatrixOuter1"></feColorMatrix>
            <feOffset dx="0" dy="4" in="SourceAlpha" result="shadowOffsetOuter2"></feOffset>
            <feGaussianBlur stdDeviation="30" in="shadowOffsetOuter2" result="shadowBlurOuter2"></feGaussianBlur>
            <feColorMatrix values="0 0 0 0 0.105882353   0 0 0 0 0.607843137   0 0 0 0 0.619607843  0 0 0 0.25352382 0" type="matrix" in="shadowBlurOuter2" result="shadowMatrixOuter2"></feColorMatrix>
            <feMerge>
                <feMergeNode in="shadowMatrixOuter1"></feMergeNode>
                <feMergeNode in="shadowMatrixOuter2"></feMergeNode>
            </feMerge>
        </filter>
        <rect id="path-3" x="0" y="0" width="462" height="718"></rect>
        <polygon id="path-5" points="0.00206563999 2.10383416 336.513904 2.10383416 336.513904 342.173789 0.00206563999 342.173789"></polygon>
    </defs>
    <g id="ðŸ–¥ï¸-03-contato-inklua-desktop" stroke="none" strokeWidth="1" fill="none" fillRule="evenodd">
        <g id="03-para-empresas-inklua-desktop-copy" transform="translate(-928.000000, -245.000000)">
            <rect fill="#FBFCFD" x="0" y="0" width="1440" height="1388"></rect>
            <g id="modulo-contato" transform="translate(174.000000, 192.000000)">
                <g id="content">
                    <g id="bg">
                        <g id="bg-shadow">
                            <use fill="black" fill-opacity="1" filter="url(#filter-2)" xlink:href="#path-1"></use>
                            <use fill="#FFFFFF" fillRule="evenodd" xlink:href="#path-1"></use>
                        </g>
                        <rect id="bg-solid" fill="#FFFFFF" x="0" y="0" width="1092" height="720" rx="20"></rect>
                        <g id="ilustracao" transform="translate(630.000000, 1.000000)">
                            <mask id="mask-4" fill="white">
                                <use xlink:href="#path-3"></use>
                            </mask>
                            <g id="Mask"></g>
                            <g id="Group-12" mask="url(#mask-4)">
                                <g transform="translate(124.000000, 52.000000)">
                                    <g>
                                        <path d="M478.894776,311.421989 C478.894776,274.034156 465.643776,237.87601 439.098997,211.378928 C413.773437,184.833727 380.063064,170.408963 343.898208,170.408963 C307.728005,170.408963 273.969505,184.833727 247.467505,211.378928 C222.141946,237.87601 207.666378,274.034156 207.666378,311.421989 C207.666378,348.756358 222.141946,383.695509 247.467505,411.416933 C273.969505,437.956787 307.728005,452.381551 343.898208,452.381551 C380.063064,452.381551 413.773437,437.956787 439.098997,411.416933 C465.643776,383.695509 478.894776,348.756358 478.894776,311.421989 M630.778615,160.314836 L630.778615,571.709314 L502.99042,571.709314 L502.99042,521.072939 C454.751005,562.042904 392.089497,586.182196 324.604581,586.182196 C162.549878,586.182196 34.2964542,448.425167 49.8522085,284.513229 C61.2690305,164.169638 173.645853,51.2415942 293.851353,38.2764155 C372.902819,29.7434566 447.494505,54.5296705 502.99042,101.722921 L503.140149,39.7680794 C567.047615,39.7680794 630.778615,96.4245738 630.778615,160.314836" id="Fill-1" fill="#48BFB6"></path>
                                        <path d="M324.607255,586.180057 C249.261577,586.180057 181.247264,556.378859 131.57473,508.041464 C130.745874,507.490779 129.879586,507.00425 129.061425,506.448218 C129.574781,507.057715 130.088136,507.661865 130.612187,508.266016 C176.98534,561.875025 243.80717,597.797927 320.094001,603.331518 C325.601882,603.727157 331.072331,603.967748 336.516043,604.042598 C368.547314,597.00665 398.626764,584.362259 425.631425,567.168026 C394.209764,579.448857 360.087636,586.180057 324.607255,586.180057" id="Fill-3" fill="#E7DF46"></path>
                                        <g id="Group-7" transform="translate(0.000000, 268.269597)">
                                            <mask id="mask-6" fill="white">
                                                <use xlink:href="#path-5"></use>
                                            </mask>
                                            <g id="Clip-6"></g>
                                            <path d="M130.610048,239.994815 C130.085997,239.390664 129.572642,238.786514 129.053938,238.177016 C108.819158,224.479372 90.5415483,208.188692 74.6649466,189.834276 C31.0243449,139.385028 5.50627712,73.2866753 7.26559068,2.10383416 C4.00898898,16.0527625 1.80583644,30.450794 0.741692373,45.1856528 C-4.79827373,121.469022 21.1101585,192.764139 67.483311,246.367802 C113.856464,299.982157 180.678294,335.905059 256.970472,341.43865 C284.31737,343.422189 311.027921,341.3638 336.513904,335.771397 C331.064845,335.696546 325.605091,335.455956 320.097209,335.060317 C243.805031,329.526725 176.977853,293.603824 130.610048,239.994815" id="Fill-5" fill="#E7DF46" mask="url(#mask-6)"></path>
                                        </g>
                                        <path d="M49.8500695,284.512159 C58.3739169,194.680847 123.169061,108.998391 205.471781,65.9219191 C108.137358,91.9324736 30.6420017,169.910672 7.25756949,270.370758 C5.50895085,341.558946 31.0270186,407.651952 74.6676203,458.106546 C90.5388746,476.455616 108.821832,492.746296 129.061959,506.449287 C127.505849,504.626142 126.040646,502.733494 124.53801,500.872924 C71.7532559,445.627896 41.8770102,368.537211 49.8500695,284.512159" id="Fill-8" fill="#EC776E"></path>
                                        <path d="M205.464295,65.9256616 C233.420803,51.2977321 263.377261,41.5618185 293.852422,38.2737423 C366.529719,30.4304775 435.399625,50.8058573 489.173659,90.8134583 C443.019753,39.9953042 378.085575,6.09336668 304.215795,0.741554759 C151.636786,-10.3309752 18.9770576,104.366748 7.9131678,256.922794 C7.59232034,261.419171 7.37307458,265.915549 7.26077797,270.374501 C30.6452102,169.909068 108.135219,91.9362161 205.464295,65.9256616" id="Fill-10" fill="#343879"></path>
                                    </g>
                                </g>
                            </g>
                        </g>
                    </g>
                </g>
            </g>
        </g>
    </g>
</svg>