<?xml version="1.0" encoding="UTF-8"?>
<svg width="404px" height="392px" viewBox="0 0 404 392" version="1.1" xmlns="http://www.w3.org/2000/svg" xmlns:xlink="http://www.w3.org/1999/xlink">
    <defs>
        <polygon id="path-1" points="0.001324404 0.566574944 215.758971 0.566574944 215.758971 218 0.001324404 218"></polygon>
    </defs>
    <g id="background" stroke="none" stroke-width="1" fill="none" fillRÃule="evenodd">
        <g id="02-menu-opened-selected-state-item-1-desktop-user-not-logged" transform="translate(-786.000000, -344.000000)">
            <rect id="Rectangle-Copy-2" fill="#1B9B9E" x="0" y="70" width="1440" height="954"></rect>
            <g id="Group-12" transform="translate(786.000000, 344.000000)">
                <path d="M306.693143,199.691239 C306.693143,175.744233 298.203673,152.584846 281.197328,135.613395 C264.972095,118.611124 243.374995,109.372025 220.205391,109.372025 C197.03236,109.372025 175.404427,118.611124 158.425489,135.613395 C142.200256,152.584846 132.926248,175.744233 132.926248,199.691239 C132.926248,223.603999 142.200256,245.982618 158.425489,263.738262 C175.404427,280.737109 197.03236,289.976208 220.205391,289.976208 C243.374995,289.976208 264.972095,280.737109 281.197328,263.738262 C298.203673,245.982618 306.693143,223.603999 306.693143,199.691239 M404,102.90671 L404,366.405953 L322.13041,366.405953 L322.13041,333.973222 C291.225042,360.214592 251.079925,375.675872 207.844614,375.675872 C104.021626,375.675872 21.8539797,287.442133 31.8200273,182.456107 C39.1344004,105.375721 111.130443,33.0450126 188.142057,24.7407815 C238.787667,19.275399 286.576047,35.151034 322.13041,65.3784349 L322.226336,25.6961962 C363.169696,25.6961962 404,61.9848296 404,102.90671" id="Fill-1" fill="#FFFFFF"></path>
                <path d="M207.278038,376.328113 C159.007212,376.328113 115.433285,357.395933 83.6101695,326.688034 C83.0791561,326.338193 82.5241616,326.02911 82,325.675872 C82.3288857,326.063075 82.6577714,326.446881 82.9935088,326.830687 C112.702849,360.887552 155.512802,383.708742 204.386585,387.224135 C207.915254,387.475478 211.419942,387.628321 214.907501,387.675872 C235.428597,383.206057 254.699243,375.173297 272,364.250102 C251.869455,372.051899 230.008835,376.328113 207.278038,376.328113" id="Fill-3" fill="#E7DF46"></path>
                <g id="Group-7" transform="translate(0.000000, 173.675872)">
                    <mask id="mask-2" fill="white">
                        <use xlink:href="#path-1"></use>
                    </mask>
                    <g id="Clip-6"></g>
                    <path d="M83.7418286,152.668958 C83.4058286,152.282677 83.0766857,151.896396 82.7441143,151.506697 C69.7704,142.748717 58.0515429,132.332806 47.8721143,120.597387 C19.8915429,88.3412215 3.5304,46.0793546 4.6584,0.566574944 C2.5704,9.48522015 1.15782857,18.6910122 0.475542857,28.1121645 C-3.07645714,76.8861122 13.5349714,122.470679 43.2675429,156.743709 C73.0001143,191.023577 115.843543,213.991908 164.758971,217.529968 C182.292686,218.7982 199.4184,217.48211 215.758971,213.906448 C212.265257,213.85859 208.764686,213.704761 205.233257,213.451799 C156.317829,209.913739 113.470971,186.945407 83.7418286,152.668958" id="Fill-5" fill="#E7DF46" mask="url(#mask-2)"></path>
                </g>
                <path d="M32.3323504,182.604631 C37.7914334,125.099849 79.2893686,70.2509242 132,42.675872 C69.6623408,59.3263162 20.0305774,109.243424 5.05405921,173.552128 C3.9341595,219.122666 20.2771608,261.431564 48.2267068,293.729661 C58.3914235,305.475668 70.1007113,315.904014 83.0634649,324.675872 C82.0668569,323.508801 81.1284699,322.297237 80.1661096,321.106208 C46.3602073,285.741555 27.2260187,236.392582 32.3323504,182.604631" id="Fill-8" fill="#EC776E"></path>
                <path d="M132.087051,42.8572763 C150.012617,33.4974521 169.220539,27.2678322 188.761052,25.1639244 C235.361352,20.1453344 279.520373,33.1827211 314,58.7819772 C284.406358,26.2654826 242.770905,4.5729953 195.405992,1.14858593 C97.5731358,-5.93628101 12.5124168,67.4541827 5.41830892,165.068665 C5.21258322,167.945716 5.07200399,170.822768 5,173.675872 C19.9939747,109.392079 69.6801598,59.5003848 132.087051,42.8572763" id="Fill-10" fill="#343879"></path>
            </g>
        </g>
    </g>
</svg>