<?xml version="1.0" encoding="UTF-8"?>
<svg width="300px" height="62px" viewBox="0 0 300 62" version="1.1" xmlns="http://www.w3.org/2000/svg" xmlns:xlink="http://www.w3.org/1999/xlink">
    <!-- Generator: Sketch 63.1 (92452) - https://sketch.com -->
    <title>Group 2</title>
    <desc>Created with Sketch.</desc>
    <g id="📱-01-quem-somos-inklua-mobile" stroke="none" strokeWidth="1" fill="none" fillRule="evenodd">
        <g id="01-para-empresas-inklua-mobile" transform="translate(-107.000000, -3659.000000)" fillRule="nonzero" stroke="#1B9B9E">
            <g id="Group-2" transform="translate(108.440000, 3660.280000)">
                <path d="M7.68,13.76 C9.92,13.76 11.76,13.12 13.2,11.84 C14.64,10.56 15.36,8.90666667 15.36,6.88 C15.36,4.85333333 14.64,3.2 13.2,1.92 C11.76,0.64 9.92,1.14575016e-13 7.68,1.14575016e-13 C5.44,1.14575016e-13 3.6,0.64 2.16,1.92 C0.72,3.2 -1.77635684e-15,4.85333333 -1.77635684e-15,6.88 C-1.77635684e-15,8.90666667 0.72,10.56 2.16,11.84 C3.6,13.12 5.44,13.76 7.68,13.76 Z" id="Path"></path>
                <polygon id="Path" points="14.56 58.72 14.56 18.72 0.8 18.72 0.8 58.72"></polygon>
                <path d="M37.6,58.72 L37.6,32.48 C38.6666667,31.52 39.6266667,30.7733333 40.48,30.24 C41.3333333,29.7066667 42.4,29.44 43.68,29.44 C45.0666667,29.44 46.08,29.8666667 46.72,30.72 C47.36,31.5733333 47.68,33.28 47.68,35.84 L47.68,35.84 L47.68,58.72 L61.44,58.72 L61.44,34.08 C61.44,29.12 60.4533333,25.16 58.48,22.2 C56.5066667,19.24 53.3333333,17.76 48.96,17.76 C46.24,17.76 43.8533333,18.3333333 41.8,19.48 C39.7466667,20.6266667 37.92,21.9733333 36.32,23.52 L36.32,23.52 L36,23.52 L35.04,18.72 L23.84,18.72 L23.84,58.72 L37.6,58.72 Z" id="Path"></path>
                <polygon id="Path" points="83.84 58.72 83.84 49.12 88 44.48 96 58.72 110.88 58.72 95.84 35.36 110.08 18.72 95.2 18.72 84.16 32.64 83.84 32.64 83.84 3.04 70.4 3.04 70.4 58.72"></polygon>
                <path d="M128.16,59.68 C129.706667,59.68 131.026667,59.5733333 132.12,59.36 C133.213333,59.1466667 134.133333,58.88 134.88,58.56 L134.88,58.56 L133.28,48.48 C132.96,48.5866667 132.706667,48.64 132.52,48.64 L132.52,48.64 L131.84,48.64 C131.36,48.64 130.866667,48.4 130.36,47.92 C129.853333,47.44 129.6,46.5066667 129.6,45.12 L129.6,45.12 L129.6,3.04 L115.84,3.04 L115.84,44.64 C115.84,46.88 116.04,48.92 116.44,50.76 C116.84,52.6 117.52,54.1866667 118.48,55.52 C119.44,56.8533333 120.706667,57.88 122.28,58.6 C123.853333,59.32 125.813333,59.68 128.16,59.68 Z" id="Path"></path>
                <path d="M151.84,59.68 C154.56,59.68 156.893333,59.12 158.84,58 C160.786667,56.88 162.56,55.36 164.16,53.44 L164.16,53.44 L164.48,53.44 L165.44,58.72 L176.64,58.72 L176.64,18.72 L162.88,18.72 L162.88,44.48 C161.973333,45.76 161.106667,46.6666667 160.28,47.2 C159.453333,47.7333333 158.4,48 157.12,48 C155.733333,48 154.72,47.5733333 154.08,46.72 C153.44,45.8666667 153.12,44.16 153.12,41.6 L153.12,41.6 L153.12,18.72 L139.36,18.72 L139.36,43.36 C139.36,45.8666667 139.6,48.12 140.08,50.12 C140.56,52.12 141.306667,53.8266667 142.32,55.24 C143.333333,56.6533333 144.626667,57.7466667 146.2,58.52 C147.773333,59.2933333 149.653333,59.68 151.84,59.68 Z" id="Path"></path>
                <path d="M196.32,59.68 C198.506667,59.68 200.493333,59.24 202.28,58.36 C204.066667,57.48 205.76,56.32 207.36,54.88 L207.36,54.88 L207.68,54.88 L208.64,58.72 L219.84,58.72 L219.84,36.48 C219.84,29.92 218.36,25.16 215.4,22.2 C212.44,19.24 208.373333,17.76 203.2,17.76 C200.053333,17.76 197.04,18.2133333 194.16,19.12 C191.28,20.0266667 188.426667,21.3333333 185.6,23.04 L185.6,23.04 L190.4,32 C192.48,30.88 194.32,30.04 195.92,29.48 C197.52,28.92 199.04,28.64 200.48,28.64 C203.893333,28.64 205.76,30.0266667 206.08,32.8 C198.4,33.6 192.853333,35.1866667 189.44,37.56 C186.026667,39.9333333 184.32,43.2 184.32,47.36 C184.32,49.0133333 184.586667,50.5866667 185.12,52.08 C185.653333,53.5733333 186.44,54.88 187.48,56 C188.52,57.12 189.786667,58.0133333 191.28,58.68 C192.773333,59.3466667 194.453333,59.68 196.32,59.68 Z" id="Path"></path>
                <path d="M201.12,49.12 C198.666667,49.12 197.44,48.16 197.44,46.24 C197.44,45.12 198.053333,44.08 199.28,43.12 C200.506667,42.16 202.773333,41.44 206.08,40.96 L206.08,40.96 L206.08,46.4 C205.333333,47.2 204.6,47.8533333 203.88,48.36 C203.16,48.8666667 202.24,49.12 201.12,49.12 Z" id="Path"></path>
                <polygon id="Path" points="271.52 58.72 273.28 44.32 280.64 44.32 278.88 58.72 286.72 58.72 288.48 44.32 296.16 44.32 296.16 35.68 289.44 35.68 290.4 28 297.76 28 297.76 19.36 291.52 19.36 292.96 6.72 285.28 6.72 283.68 19.36 276.32 19.36 277.76 6.72 270.08 6.72 268.48 19.36 261.28 19.36 261.28 28 267.36 28 266.4 35.68 259.68 35.68 259.68 44.32 265.44 44.32 263.68 58.72"></polygon>
                <polygon id="Path" points="281.6 35.68 274.24 35.68 275.2 28 282.56 28"></polygon>
            </g>
        </g>
    </g>
</svg>