<?xml version="1.0" encoding="UTF-8"?>
<svg aria-hidden="true" width="26px" height="26px" viewBox="0 0 26 26" version="1.1" xmlns="http://www.w3.org/2000/svg" xmlns:xlink="http://www.w3.org/1999/xlink">
    <g id="â¬…ï¸âž¡ï¸ðŸ“±ðŸ’»-ðŸ–¥ï¸-01-fluxo:recebendo-inkoins:anuncios(all-views)" stroke="none" stroke-width="1" fill="none" fill-rule="evenodd">
        <g id="01-home-logada-inklua-mobile" transform="translate(-234.000000, -117.000000)">
            <g id="navigation-bar" transform="translate(0.000000, 94.000000)">
                <g id="inkoin-icon" transform="translate(234.000000, 23.000000)">
                    <circle id="Oval" fill="#E7DF46" cx="13" cy="13" r="13"></circle>
                    <path d="M8.836,17 L8.836,14.9 L9.748,13.7 L11.656,17 L13.588,17 L10.792,12.296 L13.156,9.176 L11.212,9.176 L8.884,12.38 L8.836,12.38 L8.836,9.176 L7.072,9.176 L7.072,17 L8.836,17 Z M17.26,18.32 L17.26,17.072 C17.884,16.936 18.352,16.662 18.664,16.25 C18.976,15.838 19.132,15.344 19.132,14.768 C19.132,14.384 19.054,14.062 18.898,13.802 C18.742,13.542 18.546,13.32 18.31,13.136 C18.074,12.952 17.82,12.796 17.548,12.668 C17.276,12.54 17.022,12.416 16.786,12.296 C16.55,12.176 16.354,12.05 16.198,11.918 C16.042,11.786 15.964,11.624 15.964,11.432 C15.964,11.16 16.04,10.964 16.192,10.844 C16.344,10.724 16.564,10.664 16.852,10.664 C17.108,10.664 17.336,10.714 17.536,10.814 C17.736,10.914 17.944,11.064 18.16,11.264 L18.16,11.264 L19.048,10.256 C18.816,10.008 18.556,9.796 18.268,9.62 C17.98,9.444 17.644,9.328 17.26,9.272 L17.26,9.272 L17.26,8.06 L16.096,8.06 L16.096,9.296 C15.528,9.408 15.082,9.658 14.758,10.046 C14.434,10.434 14.272,10.924 14.272,11.516 C14.272,11.876 14.35,12.18 14.506,12.428 C14.662,12.676 14.858,12.892 15.094,13.076 C15.33,13.26 15.584,13.418 15.856,13.55 C16.128,13.682 16.382,13.814 16.618,13.946 C16.854,14.078 17.05,14.216 17.206,14.36 C17.362,14.504 17.44,14.68 17.44,14.888 C17.44,15.168 17.362,15.376 17.206,15.512 C17.05,15.648 16.804,15.716 16.468,15.716 C16.18,15.716 15.898,15.658 15.622,15.542 C15.346,15.426 15.056,15.252 14.752,15.02 L14.752,15.02 L13.984,16.208 C14.264,16.464 14.598,16.67 14.986,16.826 C15.374,16.982 15.744,17.08 16.096,17.12 L16.096,17.12 L16.096,18.32 L17.26,18.32 Z" id="K$" fill="#222B45"></path>
                </g>
            </g>
        </g>
    </g>
</svg>