<?xml version="1.0" encoding="UTF-8"?>
<svg width="143px" height="42px" viewBox="0 0 143 42" version="1.1" xmlns="http://www.w3.org/2000/svg" xmlns:xlink="http://www.w3.org/1999/xlink">
    <!-- Generator: Sketch 63.1 (92452) - https://sketch.com -->
    <title>logo</title>
    <desc>Created with Sketch.</desc>
    <defs>
        <polygon id="path-1" points="0.251955663 0.157259016 4.40956867 0.157259016 4.40956867 4.31388197 0.251955663 4.31388197"></polygon>
        <polygon id="path-3" points="0 0.169514754 7.53244747 0.169514754 7.53244747 24.1153672 0 24.1153672"></polygon>
        <polygon id="path-5" points="0 0.00340819672 7.53244747 0.00340819672 7.53244747 7.70386721 0 7.70386721"></polygon>
    </defs>
    <g id="🔀04-fluxo-de-excecao:busca-sem-resultados" stroke="none" strokeWidth="1" fill="none" fillRule="evenodd">
        <g id="06-search-inklua-no-results-(DesktopView)" transform="translate(-82.000000, -865.000000)">
            <g id="footer" transform="translate(0.000000, 800.000000)">
                <g id="logo-inklua" transform="translate(82.000000, 65.000000)">
                    <g id="Group-28">
                        <g>
                            <g id="Group-3" transform="translate(138.520482, 12.776951)">
                                <mask id="mask-2" fill="white">
                                    <use xlink:href="#path-1"></use>
                                </mask>
                                <g id="Clip-2"></g>
                                <path d="M2.24947614,2.17016066 C2.46001349,2.17016066 2.60818217,2.13160328 2.69329301,2.05483279 C2.77874843,1.9780623 2.82147614,1.86789836 2.82147614,1.72399672 C2.82147614,1.65376721 2.81251711,1.5918 2.79459904,1.53912787 C2.77633639,1.48611148 2.74704723,1.44239016 2.70604241,1.4083082 C2.66538217,1.37388197 2.61162795,1.34840656 2.5440906,1.33119344 C2.47655325,1.31432459 2.39385446,1.30571803 2.29530506,1.30571803 L1.92247133,1.30571803 L1.92247133,2.17016066 L2.24947614,2.17016066 Z M2.29530506,0.964898361 C2.62334361,0.964898361 2.86592675,1.02376721 3.02202072,1.1425377 C3.17845928,1.26061967 3.25702313,1.43584918 3.25702313,1.66684918 C3.25702313,1.84517705 3.2067147,1.99665246 3.10609783,2.12161967 C3.00548096,2.24693115 2.85455566,2.33196393 2.65366651,2.37775082 C2.68605687,2.39840656 2.71396771,2.42319344 2.73774361,2.45142295 C2.76117494,2.47999672 2.78357253,2.51339016 2.80424723,2.55091475 L3.45343277,3.50073443 L3.02925687,3.50073443 C2.96688819,3.50073443 2.92105928,3.47698033 2.89245928,3.42947213 L2.31770265,2.57088197 C2.30047373,2.54643934 2.28048819,2.52750492 2.25671229,2.51442295 C2.23293639,2.50099672 2.19675566,2.49411148 2.14713639,2.49411148 L1.92247133,2.49411148 L1.92247133,3.50073443 L1.47830988,3.50073443 L1.47830988,0.964898361 L2.29530506,0.964898361 Z M2.32907373,4.05775082 C2.49619422,4.05775082 2.65711229,4.03675082 2.81148337,3.9940623 C2.96619904,3.95137377 3.11023277,3.89078361 3.24427373,3.81194754 C3.37762554,3.73345574 3.49926169,3.63912787 3.60849301,3.5293082 C3.71772434,3.41914426 3.81076048,3.29624262 3.88863518,3.16094754 C3.96650988,3.02565246 4.02681108,2.88002951 4.06919422,2.72442295 C4.11226651,2.56916066 4.13363036,2.40701311 4.13363036,2.23832459 C4.13363036,1.98425902 4.08642313,1.74602951 3.99269783,1.5232918 C3.89862795,1.3005541 3.77044482,1.10639016 3.60849301,0.940455738 C3.44619663,0.774865574 3.25495566,0.643701639 3.0351147,0.548340984 C2.81492916,0.452291803 2.57992675,0.404439344 2.32907373,0.404439344 C2.16229783,0.404439344 2.00172434,0.426472131 1.84838699,0.470193443 C1.69470506,0.513570492 1.55204964,0.574504918 1.42007614,0.653340984 C1.28810265,0.731832787 1.16784482,0.827193443 1.05861349,0.939078689 C0.949726747,1.05096393 0.856690602,1.1745541 0.779849639,1.31019344 C0.703008675,1.44583279 0.643741205,1.5918 0.602047229,1.74912787 C0.560353253,1.90645574 0.539333976,2.06963607 0.539333976,2.23832459 C0.539333976,2.40701311 0.560353253,2.56916066 0.602047229,2.72442295 C0.643741205,2.88002951 0.703008675,3.02565246 0.779849639,3.16094754 C0.856690602,3.29624262 0.949726747,3.41914426 1.05861349,3.5293082 C1.16784482,3.63912787 1.28810265,3.73345574 1.42007614,3.81194754 C1.55204964,3.89078361 1.69470506,3.95137377 1.84838699,3.9940623 C2.00172434,4.03675082 2.16229783,4.05775082 2.32907373,4.05775082 L2.32907373,4.05775082 Z M2.32907373,0.157259016 C2.52100386,0.157259016 2.70535325,0.182045902 2.88281108,0.230931148 C3.06026892,0.280504918 3.22566651,0.350734426 3.37934843,0.441619672 C3.53303036,0.532504918 3.67327373,0.640947541 3.80042313,0.766947541 C3.92757253,0.893291803 4.03645928,1.03340656 4.12639422,1.18763607 C4.21632916,1.34220984 4.28593398,1.50814426 4.33555325,1.68543934 C4.38482795,1.86273443 4.40963759,2.04691475 4.40963759,2.23832459 C4.40963759,2.42801311 4.38482795,2.61150492 4.33555325,2.78845574 C4.28593398,2.96575082 4.21632916,3.13099672 4.12639422,3.2845377 C4.03645928,3.43807869 3.92757253,3.57784918 3.80042313,3.70384918 C3.67327373,3.82984918 3.53303036,3.93863607 3.37934843,4.02952131 C3.22566651,4.12040656 3.06026892,4.19063607 2.88281108,4.23986557 C2.70535325,4.28909508 2.52100386,4.31388197 2.32907373,4.31388197 C2.13783277,4.31388197 1.95382795,4.28909508 1.77705928,4.23986557 C1.60063518,4.19063607 1.43592675,4.12040656 1.28190024,4.02952131 C1.12856289,3.93863607 0.988664096,3.82984918 0.862548434,3.70384918 C0.736088193,3.57784918 0.627546024,3.43807869 0.536232771,3.2845377 C0.445608675,3.13099672 0.375314699,2.96643934 0.32604,2.78983279 C0.276420723,2.61357049 0.251955663,2.42973443 0.251955663,2.23832459 C0.251955663,2.04691475 0.276420723,1.86273443 0.32604,1.68543934 C0.375314699,1.50814426 0.445608675,1.34220984 0.536232771,1.18763607 C0.627546024,1.03340656 0.736088193,0.893291803 0.862548434,0.766947541 C0.988664096,0.640947541 1.12856289,0.532504918 1.28190024,0.441619672 C1.43592675,0.350734426 1.60063518,0.280504918 1.77705928,0.230931148 C1.95382795,0.182045902 2.13783277,0.157259016 2.32907373,0.157259016 L2.32907373,0.157259016 Z" id="Fill-1" fill="#FEFEFE" mask="url(#mask-2)"></path>
                            </g>
                            <g id="Group-6" transform="translate(0.000000, 15.875311)">
                                <mask id="mask-4" fill="white">
                                    <use xlink:href="#path-3"></use>
                                </mask>
                                <g id="Clip-5"></g>
                                <path d="M-3.44578313e-05,24.1153672 L-3.44578313e-05,7.69508852 C-3.44578313e-05,3.53880984 3.37235349,0.169514754 7.53244747,0.169514754 L7.53244747,24.1153672 L-3.44578313e-05,24.1153672 Z" id="Fill-4" fill="#FEFEFE" mask="url(#mask-4)"></path>
                            </g>
                            <g id="Group-9" transform="translate(0.000000, 3.826131)">
                                <mask id="mask-6" fill="white">
                                    <use xlink:href="#path-5"></use>
                                </mask>
                                <g id="Clip-8"></g>
                                <path d="M-3.44578313e-05,3.94108033 L-3.44578313e-05,3.76653934 C-3.44578313e-05,1.68822787 1.68633181,0.00340819672 3.76620651,0.00340819672 L3.76655108,0.00340819672 C5.84642578,0.00340819672 7.53244747,1.68822787 7.53244747,3.76653934 L7.53244747,3.94108033 C7.53244747,6.0193918 5.84642578,7.70386721 3.76655108,7.70386721 L3.76620651,7.70386721 C1.68633181,7.70386721 -3.44578313e-05,6.0193918 -3.44578313e-05,3.94108033" id="Fill-7" fill="#FEFEFE" mask="url(#mask-6)"></path>
                            </g>
                            <path d="M56.3469275,39.9906787 L48.6001178,30.5840557 L47.0402118,32.1969246 L47.0402118,39.9906787 L39.5077299,39.9906787 L39.5077299,7.52571148 C39.5077299,3.36943279 42.8801178,0.000137704918 47.0402118,0.000137704918 L47.0402118,24.2954164 L53.926954,16.8238918 L63.1265058,16.8238918 L53.711248,26.4993836 L65.1701998,39.9906787 L56.3469275,39.9906787 Z" id="Fill-10" fill="#FEFEFE"></path>
                            <path d="M68.9391973,39.9906787 L68.9391973,6.88021967 C68.9391973,3.08025246 72.0221395,0.000137704918 75.8252504,0.000137704918 L75.8252504,39.9906787 L68.9391973,39.9906787 Z" id="Fill-12" fill="#FEFEFE"></path>
                            <path d="M104.154481,27.681959 C104.154481,34.5086803 98.2366928,39.9907131 91.9956904,39.9907131 C85.7012783,39.9907131 79.8369,34.5086803 79.8369,27.681959 L79.8369,16.179123 L86.7232976,16.179123 L86.7232976,27.5208443 C86.7232976,29.1333689 87.3152831,30.6381393 88.1760398,31.7132705 C89.2521578,32.8417623 90.6508012,33.4865656 91.9956904,33.4865656 C93.3405795,33.4865656 94.7392229,32.8417623 95.7622759,31.7132705 C96.6760976,30.6381393 97.2684277,29.1333689 97.2684277,27.5208443 L97.2684277,23.0592049 C97.2684277,19.259582 100.35137,16.179123 104.154481,16.179123 L104.154481,27.681959 Z" id="Fill-14" fill="#FEFEFE"></path>
                            <path d="M11.343139,28.4878426 C11.343139,21.6611213 17.2612716,16.1790885 23.5019294,16.1790885 C29.796686,16.1790885 35.6607198,21.6611213 35.6607198,28.4878426 L35.6607198,39.9906787 L28.7746667,39.9906787 L28.7746667,28.6489574 C28.7746667,27.0364328 28.1826812,25.5316623 27.32158,24.4565311 C26.2454619,23.3276951 24.8468186,22.6828918 23.5019294,22.6828918 C22.1570402,22.6828918 20.7583969,23.3276951 19.7356884,24.4565311 C18.8215222,25.5316623 18.2295366,27.0364328 18.2295366,28.6489574 L18.2295366,33.1105967 C18.2295366,36.9105639 15.1465945,39.9906787 11.343139,39.9906787 L11.343139,28.4878426 Z" id="Fill-16" fill="#FEFEFE"></path>
                            <path d="M129.365898,28.542959 C129.365898,26.898418 128.782871,25.3079262 127.614061,24.1425984 C126.499695,22.9752049 125.015596,22.3403852 123.423645,22.3403852 C121.831693,22.3403852 120.345527,22.9752049 119.179473,24.1425984 C118.064418,25.3079262 117.427637,26.898418 117.427637,28.542959 C117.427637,30.1850902 118.064418,31.7215328 119.179473,32.9409098 C120.345527,34.1083033 121.831693,34.743123 123.423645,34.743123 C125.015596,34.743123 126.499695,34.1083033 127.614061,32.9409098 C128.782871,31.7215328 129.365898,30.1850902 129.365898,28.542959 M136.051061,21.8966311 L136.051061,39.9914016 L130.42651,39.9914016 L130.42651,37.7640246 C128.303218,39.5662377 125.544869,40.6279426 122.574948,40.6279426 C115.441488,40.6279426 109.796261,34.5689262 110.480939,27.3593852 C110.983334,22.0660082 115.9301,17.0989918 121.2211,16.5285492 C124.700307,16.1536475 127.983449,17.243582 130.42651,19.3194836 L130.433057,16.5943033 C133.246194,16.5943033 136.051061,19.0860738 136.051061,21.8966311" id="Fill-18" fill="#FEFEFE"></path>
                            <path d="M122.574604,40.6277705 C119.258382,40.6277705 116.264686,39.3168197 114.078336,37.191 C114.041466,37.1665574 114.003563,37.1455574 113.967382,37.1207705 C113.990124,37.147623 114.012522,37.1744754 114.035608,37.2006393 C116.07689,39.5588361 119.018211,41.1386557 122.376127,41.3820492 C122.618365,41.3996066 122.859225,41.4099344 123.098707,41.413377 C124.508722,41.1042295 125.832592,40.5479016 127.021042,39.7915574 C125.638249,40.3320492 124.136233,40.6277705 122.574604,40.6277705" id="Fill-20" fill="#E7DF46"></path>
                            <path d="M114.03554,37.2006049 C114.012797,37.1740967 113.990055,37.1475885 113.967313,37.1210803 C113.076578,36.5186213 112.271988,35.8018672 111.573183,34.9945721 C109.652159,32.7754574 108.529178,29.8681623 108.606364,26.7370967 C108.463019,27.3509164 108.366193,27.984359 108.31933,28.6322607 C108.075368,31.9870967 109.216267,35.1233262 111.257205,37.4811787 C113.298142,39.8393754 116.239462,41.4191951 119.597723,41.6625885 C120.801335,41.7496869 121.977036,41.6591459 123.098638,41.4133426 C122.858812,41.4102443 122.618296,41.3995721 122.376058,41.3820148 C119.018142,41.1386213 116.076821,39.5588016 114.03554,37.2006049" id="Fill-22" fill="#E7DF46"></path>
                            <path d="M110.481076,27.3592131 C110.856322,23.4077705 113.708052,19.6394754 117.330604,17.7446557 C113.046462,18.8886393 109.635481,22.3185246 108.606226,26.7371311 C108.529385,29.8681967 109.65271,32.7751475 111.573045,34.9946066 C112.27185,35.8015574 113.07644,36.5183115 113.967175,37.1207705 C113.899293,37.0405574 113.834513,36.9575902 113.768353,36.8756557 C111.445207,34.4458525 110.129951,31.0548689 110.481076,27.3592131" id="Fill-24" fill="#EC776E"></path>
                            <path d="M117.33057,17.7449311 C118.560714,17.1015049 119.879415,16.6732426 121.221203,16.5286525 C124.419924,16.1837016 127.451524,17.0798164 129.818088,18.8396852 C127.786799,16.6043902 124.928521,15.1130459 121.67708,14.8775705 C114.961249,14.3907836 109.122025,19.4359475 108.635136,26.1456197 C108.621008,26.3435705 108.611015,26.5408328 108.606536,26.7374066 C109.635447,22.3188 113.046427,18.8889148 117.33057,17.7449311" id="Fill-26" fill="#343879"></path>
                        </g>
                    </g>
                </g>
            </g>
        </g>
    </g>
</svg>