<?xml version="1.0" encoding="UTF-8"?>
<svg width="260px" height="181px" viewBox="0 0 260 181" version="1.1" xmlns="http://www.w3.org/2000/svg" xmlns:xlink="http://www.w3.org/1999/xlink">
    <!-- Generator: Sketch 63.1 (92452) - https://sketch.com -->
    <title>undraw_not_found_60pq (1)</title>
    <desc>Created with Sketch.</desc>
    <g id="🔀04-fluxo-de-excecao:busca-sem-resultados" stroke="none" stroke-width="1" fill="none" fill-rule="evenodd">
        <g id="04-search-inklua-no-results-(MobileView)" transform="translate(-77.000000, -312.000000)">
            <g id="undraw_not_found_60pq-(1)" transform="translate(77.000000, 312.000000)">
                <g>
                    <circle id="Oval" fill="#FF6584" fill-rule="nonzero" cx="49.3077499" cy="23.8893845" r="14.8438894"></circle>
                    <path d="M121.528845,79.5822032 C121.528845,114.607151 100.707069,126.836554 75.022107,126.836554 C49.3371454,126.836554 28.5153736,114.607151 28.5153736,79.5822032 C28.5153736,44.5572553 75.022107,0 75.022107,0 C75.022107,0 121.528845,44.5572553 121.528845,79.5822032 Z" id="Path" fill="#F2F2F2" fill-rule="nonzero"></path>
                    <polygon id="Path" fill="#3F3D56" fill-rule="nonzero" points="73.3278858 121.478912 73.8042819 92.1661731 93.6264407 55.9020874 73.8789652 87.5678145 74.0930419 74.3876004 87.7545227 48.1510259 74.1496343 70.8997502 74.1496343 70.8997502 74.5346476 47.1945227 89.1637645 26.306851 74.5954148 43.466851 74.8359322 0 73.323711 57.5423372 73.4480285 55.1684746 58.5746833 32.402355 73.2095986 59.7253167 71.8237823 86.1998573 71.7824978 85.4973238 54.63595 61.5392864 71.7305442 87.9797324 71.5572881 91.2906155 71.5262087 91.3404817 71.5403568 91.6123104 68.0244425 158.780678 72.7220696 158.780678 73.2856735 124.086798 90.3380553 97.7110616"></polygon>
                    <path d="M259.905431,93.9273982 C259.905431,122.596979 242.861816,132.607327 221.83745,132.607327 C200.813085,132.607327 183.76947,122.596979 183.76947,93.9273982 C183.76947,65.2578175 221.83745,28.7855718 221.83745,28.7855718 C221.83745,28.7855718 259.905431,65.2578105 259.905431,93.9273982 Z" id="Path" fill="#F2F2F2" fill-rule="nonzero"></path>
                    <polygon id="Path" fill="#3F3D56" fill-rule="nonzero" points="220.450776 128.221748 220.840428 104.227993 237.065959 74.544157 220.901659 100.463907 221.077003 89.6754148 232.259554 68.199322 221.12339 86.8202855 221.12339 86.8202855 221.438591 67.4165388 233.412971 50.3189295 221.487993 64.3654237 221.685138 28.7855486 220.447297 75.8866012 220.549117 73.9436753 208.374344 55.3083318 220.353827 77.6736664 219.219429 99.3443533 219.185566 98.7691525 205.150437 79.1582872 219.143122 100.801142 219.001178 103.511311 218.975897 103.552132 218.987493 103.774558 216.109402 158.754933 219.954665 158.754933 220.415986 130.356485 234.374344 108.766744"></polygon>
                    <ellipse id="Oval" fill="#3F3D56" fill-rule="nonzero" cx="128.629784" cy="157.827429" rx="128.629784" ry="6.50216396"></ellipse>
                    <ellipse id="Oval" fill="#3F3D56" fill-rule="nonzero" cx="206.989899" cy="168.570137" rx="22.0312496" ry="1.11366744"></ellipse>
                    <ellipse id="Oval" fill="#3F3D56" fill-rule="nonzero" cx="127.267702" cy="179.312843" rx="22.0312496" ry="1.11366744"></ellipse>
                    <ellipse id="Oval" fill="#3F3D56" fill-rule="nonzero" cx="66.784588" cy="170.305536" rx="50.333393" ry="2.54432614"></ellipse>
                    <circle id="Oval" fill="#2F2E41" fill-rule="nonzero" cx="22.5171945" cy="131.338228" r="18.322926"></circle>
                    <polygon id="Rectangle" fill="#2F2E41" fill-rule="nonzero" transform="translate(16.722943, 150.637933) rotate(0.675090) translate(-16.722943, -150.637933) " points="13.9397136 145.651314 19.5061721 145.651314 19.5061721 155.624552 13.9397136 155.624552"></polygon>
                    <polygon id="Rectangle" fill="#2F2E41" fill-rule="nonzero" transform="translate(27.855086, 150.769105) rotate(0.675090) translate(-27.855086, -150.769105) " points="25.0718571 145.782485 30.6383156 145.782485 30.6383156 155.755724 25.0718571 155.755724"></polygon>
                    <ellipse id="Oval" fill="#2F2E41" fill-rule="nonzero" transform="translate(18.518176, 155.762027) rotate(-89.324910) translate(-18.518176, -155.762027) " cx="18.5181756" cy="155.762027" rx="1.73951829" ry="4.63871543"></ellipse>
                    <ellipse id="Oval" fill="#2F2E41" fill-rule="nonzero" transform="translate(29.653052, 155.661277) rotate(-89.324910) translate(-29.653052, -155.661277) " cx="29.6530522" cy="155.661277" rx="1.73951829" ry="4.63871543"></ellipse>
                    <circle id="Oval" fill="#FFFFFF" fill-rule="nonzero" cx="23.0356869" cy="126.705299" r="6.26226583"></circle>
                    <circle id="Oval" fill="#3F3D56" fill-rule="nonzero" cx="23.0356869" cy="126.705299" r="2.08742194"></circle>
                    <path d="M4.94533684,114.090199 C3.5440157,107.447384 8.35191204,100.808436 15.6840767,99.2616937 C23.0162414,97.7149511 30.0961318,101.846135 31.4974576,108.48895 C32.8987834,115.131764 28.0234448,117.518209 20.6912824,119.064957 C13.3591201,120.611704 6.3466603,120.733016 4.94533684,114.090199 Z" id="Path" fill="#1B9B9E" fill-rule="nonzero"></path>
                    <path d="M50.4674287,141.56015 C50.4674287,154.334209 42.8738864,158.794439 33.5059657,158.794439 C33.2889496,158.794439 33.0722791,158.792027 32.8559541,158.787202 C32.4219119,158.777899 31.9920073,158.757236 31.5672749,158.728291 C23.1129029,158.129945 16.5445004,153.440301 16.5445004,141.560143 C16.5445004,129.265592 32.2555327,113.751944 33.4356869,112.603813 L33.4377558,112.601751 C33.4832337,112.557314 33.5059657,112.535612 33.5059657,112.535612 C33.5059657,112.535612 50.4674287,128.786092 50.4674287,141.56015 Z" id="Path" fill="#1B9B9E" fill-rule="nonzero"></path>
                    <path d="M32.8879845,156.840243 L39.0915706,148.171952 L32.8724773,157.792022 L32.8559518,158.787202 C32.4219095,158.777899 31.992005,158.757236 31.5672726,158.728291 L32.2359017,145.948031 L32.2307295,145.848821 L32.2420944,145.830219 L32.3051322,144.623191 L26.0705224,134.979348 L32.3247609,143.717918 L32.339243,143.974207 L32.8445707,134.317969 L27.5069864,124.35273 L32.9096774,132.623166 L33.4356822,112.603817 L33.4377511,112.535628 L33.4377511,112.601767 L33.3499147,128.388244 L38.6637465,122.129872 L33.3282148,129.748215 L33.1876733,138.393774 L38.1491112,130.096467 L33.1670148,139.665905 L33.0884744,144.47231 L40.2913813,132.923882 L33.0616046,146.149556 L32.8879845,156.840243 Z" id="Path" fill="#3F3D56" fill-rule="nonzero"></path>
                    <circle id="Oval" fill="#2F2E41" fill-rule="nonzero" cx="165.25077" cy="131.140039" r="18.322926"></circle>
                    <polygon id="Rectangle" fill="#2F2E41" fill-rule="nonzero" transform="translate(165.619144, 151.287401) rotate(-17.083450) translate(-165.619144, -151.287401) " points="162.835915 146.300781 168.402373 146.300781 168.402373 156.27402 162.835915 156.27402"></polygon>
                    <polygon id="Rectangle" fill="#2F2E41" fill-rule="nonzero" transform="translate(176.260554, 148.018070) rotate(-17.083183) translate(-176.260554, -148.018070) " points="173.477323 143.031447 179.043786 143.031447 179.043786 153.004693 173.477323 153.004693"></polygon>
                    <ellipse id="Oval" fill="#2F2E41" fill-rule="nonzero" transform="translate(168.891719, 155.619775) rotate(-17.083450) translate(-168.891719, -155.619775) " cx="168.891719" cy="155.619775" rx="4.63871543" ry="1.73951829"></ellipse>
                    <ellipse id="Oval" fill="#2F2E41" fill-rule="nonzero" transform="translate(179.465293, 152.127621) rotate(-17.083450) translate(-179.465293, -152.127621) " cx="179.465293" cy="152.127621" rx="4.63871543" ry="1.73951829"></ellipse>
                    <circle id="Oval" fill="#FFFFFF" fill-rule="nonzero" cx="164.331488" cy="126.569723" r="6.26226583"></circle>
                    <circle id="Oval" fill="#3F3D56" fill-rule="nonzero" cx="164.331488" cy="126.569723" r="2.08742194"></circle>
                    <path d="M143.255452,120.073399 C139.894802,114.174524 142.448684,106.385478 148.959708,102.676083 C155.470732,98.9666876 163.473302,100.741611 166.833952,106.640487 C170.194601,112.539363 166.279458,116.299104 159.768434,120.008502 C153.257411,123.717899 146.616101,125.972275 143.255452,120.073399 Z" id="Path" fill="#1B9B9E" fill-rule="nonzero"></path>
                    <path d="M132.572692,139.220994 C132.572692,150.946996 125.602168,155.041284 117.002844,155.041284 C116.803634,155.041284 116.60474,155.03907 116.406163,155.034642 C116.007732,155.026102 115.613098,155.007134 115.223214,154.98057 C107.462486,154.431316 101.432993,150.126438 101.432993,139.220999 C101.432993,127.935162 115.855005,113.694342 116.938331,112.640412 L116.94023,112.638517 C116.981979,112.597727 117.002853,112.577804 117.002853,112.577804 C117.002853,112.577804 132.572692,127.494992 132.572692,139.220994 Z" id="Path" fill="#1B9B9E" fill-rule="nonzero"></path>
                    <path d="M116.435566,153.247423 L122.130176,145.290329 L116.421332,154.121112 L116.406163,155.034642 C116.007732,155.026102 115.613098,155.007134 115.223214,154.98057 L115.836986,143.248876 L115.832238,143.157804 L115.842675,143.140732 L115.900541,142.032733 L110.177454,133.180125 L115.91856,141.201732 L115.931852,141.436992 L116.395724,132.573007 L111.496064,123.42537 L116.455482,131.017252 L116.938331,112.640408 L116.94023,112.577799 L116.94023,112.638513 L116.8596,127.129772 L121.737441,121.384876 L116.83967,128.378166 L116.710658,136.314393 L121.265027,128.697855 L116.69169,137.482164 L116.619593,141.894232 L123.231532,131.293304 L116.594922,143.433861 L116.435566,153.247423 Z" id="Path" fill="#3F3D56" fill-rule="nonzero"></path>
                    <path d="M193.803736,144.111443 C193.803736,156.885503 186.210193,161.345732 176.842273,161.345732 C176.625258,161.345732 176.408588,161.34332 176.192261,161.338496 C175.758219,161.329193 175.328314,161.30853 174.903582,161.279584 C166.44921,160.681239 159.880807,155.991595 159.880807,144.111436 C159.880807,131.816885 175.59184,116.303237 176.771994,115.155106 L176.774063,115.153044 C176.819541,115.108608 176.842273,115.086906 176.842273,115.086906 C176.842273,115.086906 193.803736,131.337386 193.803736,144.111443 Z" id="Path" fill="#1B9B9E" fill-rule="nonzero"></path>
                    <path d="M176.224291,159.391536 L182.427877,150.723245 L176.208784,160.343315 L176.192259,161.338496 C175.758216,161.329193 175.328312,161.30853 174.903579,161.279584 L175.572209,148.499325 L175.567036,148.400114 L175.578401,148.381513 L175.641439,147.174484 L169.406845,137.530648 L175.661084,146.269218 L175.675566,146.525507 L176.180894,136.86927 L170.84331,126.904031 L176.246001,135.174466 L176.772005,115.155118 L176.774074,115.086929 L176.774074,115.153068 L176.686238,130.939544 L182.00007,124.681172 L176.664538,132.299516 L176.523985,140.945075 L181.485418,132.64776 L176.503322,142.217198 L176.424781,147.023603 L183.627688,135.475176 L176.397912,148.700849 L176.224291,159.391536 Z" id="Path" fill="#3F3D56" fill-rule="nonzero"></path>
                    <ellipse id="Oval" fill="#2F2E41" fill-rule="nonzero" transform="translate(158.136840, 138.182705) rotate(-64.625740) translate(-158.136840, -138.182705) " cx="158.13684" cy="138.182705" rx="2.87606619" ry="9.16146298"></ellipse>
                    <ellipse id="Oval" fill="#2F2E41" fill-rule="nonzero" transform="translate(16.887957, 137.023019) rotate(-68.158290) translate(-16.887957, -137.023019) " cx="16.8879567" cy="137.023019" rx="2.87606619" ry="9.16146298"></ellipse>
                </g>
            </g>
        </g>
    </g>
</svg>