<?xml version="1.0" encoding="UTF-8"?>
<svg width="82px" height="24px" viewBox="0 0 82 24" version="1.1" xmlns="http://www.w3.org/2000/svg" xmlns:xlink="http://www.w3.org/1999/xlink">
    <!-- Generator: Sketch 63.1 (92452) - https://sketch.com -->
    <title>logo-inklua-sem-tagline-color</title>
    <desc>Created with Sketch.</desc>
    <defs>
        <polygon id="path-logo-1" points="0.0782371711 0.0933452514 2.46053947 0.0933452514 2.46053947 2.46331173 0.0782371711 2.46331173"></polygon>
        <polygon id="path-logo-3" points="0.114746053 0.0931843575 14.8191803 0.0931843575 14.8191803 22.8940961 0.114746053 22.8940961"></polygon>
        <polygon id="path-logo-5" points="0.120140789 0.0931843575 4.06585132 0.0931843575 4.06585132 22.8940961 0.120140789 22.8940961"></polygon>
        <polygon id="path-logo-7" points="0.00819815021 0.0527597765 8.49537533 0.0527597765 8.49537533 8.58100559 0.00819815021 8.58100559"></polygon>
    </defs>
    <g id="ðŸ–¥ï¸-03-home-inklua-computador" stroke="none" strokeWidth="1" fill="none" fillRule="evenodd">
        <g id="00-desktop-menu:navigation-selected-item-state" transform="translate(-94.000000, -28.000000)">
            <g id="navigation-bar-selected-item-state">
                <g id="logo-inklua-sem-tagline-color" transform="translate(94.000000, 28.000000)">
                    <g id="Group-29">
                        <g id="Group-3" transform="translate(79.437500, 7.415196)">
                            <mask id="mask-2" fill="white">
                                <use xlink:href="#path-logo-1"></use>
                            </mask>
                            <g id="Clip-2"></g>
                            <path d="M1.22286546,1.24105475 C1.34370757,1.24105475 1.42840493,1.21906592 1.4772273,1.17535642 C1.52618454,1.13151285 1.55073059,1.06863017 1.55073059,0.986574302 C1.55073059,0.946618994 1.54547072,0.911356425 1.53508586,0.881188827 C1.52470099,0.850887151 1.5079773,0.826082682 1.4845102,0.806641341 C1.46117796,0.787065922 1.43029309,0.772585475 1.39172072,0.762797765 C1.35301349,0.753010056 1.3055398,0.74818324 1.24889507,0.74818324 L1.03526349,0.74818324 L1.03526349,1.24105475 L1.22286546,1.24105475 Z M1.24889507,0.553769832 C1.43703651,0.553769832 1.57595099,0.587423464 1.66550362,0.654998883 C1.75519112,0.722574302 1.8001023,0.822328492 1.8001023,0.954127374 C1.8001023,1.05575866 1.77124046,1.14210503 1.71378651,1.21343464 C1.6561977,1.28489832 1.56961217,1.33343464 1.45443454,1.35931173 C1.47291151,1.37124469 1.48896086,1.38532291 1.50258257,1.40141229 C1.51620428,1.41763575 1.52888191,1.43667486 1.54075033,1.45826145 L1.91258257,1.99980335 L1.66968454,1.99980335 C1.63380954,1.99980335 1.60777993,1.98612737 1.59132599,1.95904358 L1.2619773,1.46952402 C1.25226678,1.45557989 1.24053322,1.44471955 1.22691151,1.43721117 C1.2132898,1.42970279 1.1923852,1.42581453 1.1641977,1.42581453 L1.03526349,1.42581453 L1.03526349,1.99980335 L0.781036513,1.99980335 L0.781036513,0.553769832 L1.24889507,0.553769832 Z M1.26858586,2.31743464 C1.36420757,2.31743464 1.45618783,2.30523352 1.54493125,2.28096536 C1.6335398,2.25656313 1.71607928,2.22197095 1.79281941,2.17718883 C1.86942467,2.13227263 1.93915164,2.07864134 2.00146086,2.01589274 C2.0640398,1.95327821 2.11758257,1.88328939 2.16208914,1.80592626 C2.20673059,1.72883128 2.24125691,1.64583687 2.26553322,1.55707709 C2.29007928,1.4684514 2.3023523,1.37607151 2.3023523,1.27993743 C2.3023523,1.13513296 2.27551349,0.999177654 2.22170099,0.872205587 C2.16788849,0.74523352 2.0943852,0.634484916 2.00146086,0.539959777 C1.90853651,0.445434637 1.79902336,0.370753073 1.67292138,0.316317318 C1.54668454,0.261613408 1.41208586,0.234395531 1.26858586,0.234395531 C1.17282928,0.234395531 1.08098388,0.246730726 0.993049671,0.271669274 C0.904980592,0.296473743 0.823115461,0.331334078 0.747589145,0.376116201 C0.672062829,0.421032402 0.603010197,0.475468156 0.54043125,0.539155307 C0.478122039,0.602976536 0.424714145,0.673367598 0.380747039,0.750730726 C0.336779934,0.827959777 0.302793092,0.911356425 0.278786513,1.00105475 C0.254779934,1.09075307 0.242776645,1.18380335 0.242776645,1.27993743 C0.242776645,1.37607151 0.254779934,1.4684514 0.278786513,1.55707709 C0.302793092,1.64583687 0.336779934,1.72883128 0.380747039,1.80592626 C0.424714145,1.88328939 0.478122039,1.95327821 0.54043125,2.01589274 C0.603010197,2.07864134 0.672062829,2.13227263 0.747589145,2.17718883 C0.823115461,2.22197095 0.904980592,2.25656313 0.993049671,2.28096536 C1.08098388,2.30523352 1.17282928,2.31743464 1.26858586,2.31743464 L1.26858586,2.31743464 Z M1.26858586,0.0933452514 C1.37836875,0.0933452514 1.48410559,0.107423464 1.58566151,0.13544581 C1.68721743,0.163602235 1.7821648,0.20369162 1.87036875,0.25544581 C1.95830296,0.307334078 2.03868454,0.369278212 2.11151349,0.441144134 C2.18434243,0.513010056 2.24665164,0.59292067 2.29830625,0.680875978 C2.34982599,0.768965363 2.38974704,0.863624581 2.41806941,0.964585475 C2.44625691,1.06568045 2.46055296,1.17079777 2.46055296,1.27993743 C2.46055296,1.38800447 2.44625691,1.49258547 2.41806941,1.59368045 C2.38974704,1.69477542 2.34982599,1.78889832 2.29830625,1.8764514 C2.24665164,1.96400447 2.18434243,2.04378101 2.11151349,2.11551285 C2.03868454,2.18751285 1.95830296,2.24932291 1.87036875,2.30121117 C1.7821648,2.35296536 1.68721743,2.39305475 1.58566151,2.42121117 C1.48410559,2.44923352 1.37836875,2.46331173 1.26858586,2.46331173 C1.15866809,2.46331173 1.05320099,2.44923352 0.952184539,2.42121117 C0.851168092,2.39305475 0.756625329,2.35296536 0.66855625,2.30121117 C0.580487171,2.24932291 0.500375329,2.18751285 0.427950987,2.11551285 C0.355661513,2.04378101 0.293352303,1.96400447 0.241293092,1.8764514 C0.189099013,1.78889832 0.148908224,1.69504358 0.120585855,1.59448492 C0.0922634868,1.49392626 0.0782371711,1.38907709 0.0782371711,1.27993743 C0.0782371711,1.17079777 0.0922634868,1.06568045 0.120585855,0.964585475 C0.148908224,0.863624581 0.189099013,0.768965363 0.241293092,0.680875978 C0.293352303,0.59292067 0.355661513,0.513010056 0.427950987,0.441144134 C0.500375329,0.369278212 0.580487171,0.307334078 0.66855625,0.25544581 C0.756625329,0.20369162 0.851168092,0.163602235 0.952184539,0.13544581 C1.05320099,0.107423464 1.15866809,0.0933452514 1.26858586,0.0933452514 L1.26858586,0.0933452514 Z" id="Fill-1" fill="#51BBB5" mask="url(#mask-2)"></path>
                        </g>
                        <path d="M2.69736842e-05,22.9349899 L2.69736842e-05,13.5729788 C2.69736842e-05,11.2031464 1.93242171,9.28207374 4.31608618,9.28207374 L4.31608618,22.9349899 L2.69736842e-05,22.9349899 Z" id="Fill-4" fill="#48BFB6"></path>
                        <path d="M2.69736842e-05,4.56261453 L2.69736842e-05,4.46299441 C2.69736842e-05,3.27814525 0.966224342,2.31760894 2.15805658,2.31760894 C3.34988882,2.31760894 4.31608618,3.27814525 4.31608618,4.46299441 L4.31608618,4.56261453 C4.31608618,5.74746369 3.34988882,6.708 2.15805658,6.708 C0.966224342,6.708 2.69736842e-05,5.74746369 2.69736842e-05,4.56261453" id="Fill-6" fill="#48BFB6"></path>
                        <g id="Group-10" transform="translate(22.523026, 0.040894)">
                            <mask id="mask-4" fill="white">
                                <use xlink:href="#path-logo-3"></use>
                            </mask>
                            <g id="Clip-9"></g>
                            <path d="M9.76350263,22.8940961 L5.32444342,17.5308335 L4.43080526,18.4506101 L4.43080526,22.8940961 L0.114746053,22.8940961 L0.114746053,4.38392849 C0.114746053,2.01423017 2.04714079,0.0931575419 4.43080526,0.0931575419 L4.43080526,13.945314 L8.37665066,9.68538101 L13.6481178,9.68538101 L8.25324605,15.201895 L14.8191803,22.8940961 L9.76350263,22.8940961 Z" id="Fill-8" fill="#48BFB6" mask="url(#mask-4)"></path>
                        </g>
                        <g id="Group-13" transform="translate(39.381579, 0.040894)">
                            <mask id="mask-6" fill="white">
                                <use xlink:href="#path-logo-5"></use>
                            </mask>
                            <g id="Clip-12"></g>
                            <path d="M0.120140789,22.8940961 L0.120140789,4.0158838 C0.120140789,1.84944804 1.88664737,0.0931575419 4.06585132,0.0931575419 L4.06585132,22.8940961 L0.120140789,22.8940961 Z" id="Fill-11" fill="#48BFB6" mask="url(#mask-6)"></path>
                        </g>
                        <path d="M59.6798967,15.9172291 C59.6798967,19.8093855 56.2889,22.9350168 52.7129987,22.9350168 C49.1063474,22.9350168 45.7461007,19.8093855 45.7461007,15.9172291 L45.7461007,9.35865922 L49.6918112,9.35865922 L49.6918112,15.8252514 C49.6918112,16.7447598 50.0310053,17.6025922 50.5242191,18.2157318 C51.1409724,18.8591732 51.9422257,19.2269497 52.7129987,19.2269497 C53.4837717,19.2269497 54.285025,18.8591732 54.8710283,18.2157318 C55.3949921,17.6025922 55.7340513,16.7447598 55.7340513,15.8252514 L55.7340513,13.2813855 C55.7340513,11.1149497 57.5006928,9.35865922 59.6798967,9.35865922 L59.6798967,15.9172291 Z" id="Fill-14" fill="#48BFB6"></path>
                        <path d="M6.49959243,16.3765542 C6.49959243,12.4843978 9.89058914,9.35876648 13.4664905,9.35876648 C17.0731418,9.35876648 20.4333885,12.4843978 20.4333885,16.3765542 L20.4333885,22.9349899 L16.487678,22.9349899 L16.487678,16.4683978 C16.487678,15.5490235 16.148349,14.691057 15.6551352,14.0780514 C15.0385168,13.4346101 14.2372635,13.0669676 13.4664905,13.0669676 C12.6958523,13.0669676 11.8944641,13.4346101 11.3084609,14.0780514 C10.7846319,14.691057 10.4454378,15.5490235 10.4454378,16.4683978 L10.4454378,19.0122637 C10.4454378,21.1786994 8.67879638,22.9349899 6.49959243,22.9349899 L6.49959243,16.3765542 Z" id="Fill-16" fill="#48BFB6"></path>
                        <path d="M74.1258421,16.4079821 C74.1258421,15.4703732 73.7916382,14.5636022 73.1221513,13.8991106 C72.4834145,13.2334123 71.6332039,12.8716693 70.7210888,12.8716693 C69.8088388,12.8716693 68.9574145,13.2334123 68.2890066,13.8991106 C67.6502697,14.5636022 67.2851809,15.4703732 67.2851809,16.4079821 C67.2851809,17.3442503 67.6502697,18.2204514 68.2890066,18.9156469 C68.9574145,19.5812112 69.8088388,19.9429542 70.7210888,19.9429542 C71.6332039,19.9429542 72.4834145,19.5812112 73.1221513,18.9156469 C73.7916382,18.2204514 74.1258421,17.3442503 74.1258421,16.4079821 M77.9565099,12.6185296 L77.9565099,22.9354458 L74.7335592,22.9354458 L74.7335592,21.6655911 C73.5169112,22.6930324 71.936523,23.2983955 70.2344836,23.2983955 C66.1472961,23.2983955 62.9126118,19.8437363 63.3049441,15.7331665 C63.5928882,12.7152 66.427148,9.8832 69.4588553,9.55806034 C71.4526151,9.34407151 73.3338947,9.9656581 74.7335592,11.1491665 L74.7373355,9.59546816 C76.349148,9.59546816 77.9565099,11.016295 77.9565099,12.6185296" id="Fill-18" fill="#48BFB6"></path>
                        <path d="M70.2345375,23.2983419 C68.3342414,23.2983419 66.61885,22.5509899 65.3660572,21.3387888 C65.3451526,21.3249788 65.3233039,21.3127777 65.3026691,21.2988335 C65.3156164,21.3141184 65.3285638,21.3292693 65.3417809,21.3444201 C66.5113599,22.6888223 68.1966757,23.5896939 70.1207086,23.7284648 C70.259623,23.7383866 70.3975934,23.7444201 70.5348895,23.7462972 C71.3427513,23.5698503 72.1013862,23.2527553 72.7824717,22.8215598 C71.9899849,23.1295374 71.1293895,23.2983419 70.2345375,23.2983419" id="Fill-20" fill="#E7DF46"></path>
                        <g id="Group-24" transform="translate(62.039474, 15.325810)">
                            <mask id="mask-8" fill="white">
                                <use xlink:href="#path-logo-7"></use>
                            </mask>
                            <g id="Clip-23"></g>
                            <path d="M3.30226678,6.01856983 C3.28904967,6.00341899 3.2761023,5.98826816 3.26302007,5.97298324 C2.75267796,5.62947486 2.2916977,5.22093855 1.89127336,4.76064804 C0.790612171,3.49548603 0.147020066,1.83787709 0.191391776,0.0527597765 C0.109256908,0.402569832 0.0536911184,0.763642458 0.0268523026,1.13316201 C-0.112871382,3.04618994 0.540566118,4.83412291 1.71014507,6.17839106 C2.87972401,7.52292737 4.5650398,8.42379888 6.48920757,8.56256983 C7.17892467,8.61231285 7.85259243,8.56069274 8.49537533,8.42044693 C8.35794441,8.41856983 8.22024375,8.41253631 8.08132928,8.40261453 C6.15716151,8.26384358 4.47171086,7.36297207 3.30226678,6.01856983" id="Fill-22" fill="#E7DF46" mask="url(#mask-8)"></path>
                        </g>
                        <path d="M63.3048766,15.7331397 C63.5198569,13.4803575 65.1540576,11.3316201 67.2298174,10.251352 C64.7749424,10.9036425 62.8204293,12.8591732 62.2306497,15.3785028 C62.1865477,17.1637542 62.8301398,18.8212291 63.930801,20.0865251 C64.3310905,20.5466816 64.7922056,20.9552179 65.3026826,21.2988603 C65.2634359,21.2531397 65.2264819,21.205676 65.1885839,21.1590168 C63.8572977,19.7735866 63.1037878,17.8403128 63.3048766,15.7331397" id="Fill-25" fill="#EC776E"></path>
                        <path d="M67.2296286,10.2514458 C67.9347207,9.88460782 68.6902536,9.6404514 69.4588687,9.5579933 C71.2918655,9.36130056 73.0288359,9.87227263 74.3850727,10.8755799 C73.2210234,9.60116648 71.5833161,8.75097654 69.7202437,8.61676425 C65.8720431,8.33908827 62.5262273,11.2154682 62.2471845,15.0412559 C62.2390924,15.1540156 62.2335628,15.2667754 62.2307306,15.3785966 C62.8205102,12.859133 64.7748885,10.9037363 67.2296286,10.2514458" id="Fill-27" fill="#343879"></path>
                    </g>
                </g>
            </g>
        </g>
    </g>
</svg>